:SAMPLES-PER-SECOND 30
:FULLY-SPECIFIED
:DEGREES
96
root  -29.2653 38.871 -8.1372 -2.82083 -46.3519 0.904544
RightUpLeg  -15.3224 -15.2494 0.870738
RightLeg  35.9062 3.73806 2.63201
RightFoot  -17.0771 -0.347851 -4.60663
RightToes  0.000482159 0.542163 -0.142577
Spine  33.5658 -2.0967 12.9937
Spine1  9.94467 3.59975 -7.79051
HEad  -39.051 47.6682 -48.3692
LeftShoulder1  9.92933 -14.8311 -47.2635
LeftArm  -24.1478 23.0454 -16.941
LeftForeArm  107.948 -78.1558 -117.616
LeftHand  -0.25398 0.0180481 5.50724
RightShoulder  4.63579 9.23262 30.442
RightArm  -6.45079 -18.6554 30.7349
RightForeArm  48.8958 77.5406 102.758
RightHand  0.596389 -15.0442 -8.14808
LeftUpLeg  -20.0456 -0.75315 -1.798
LeftLeg  -4.23019 -5.64544 -5.65084
LeftFoot  11.5661 3.4144 -17.0169
LeftToes  1.06246e-005 4.65854e-005 -8.18503e-006
97
root  -28.6662 39.1711 -8.71472 -2.66345 -42.3319 1.40697
RightUpLeg  -16.0978 -19.1859 0.377786
RightLeg  34.0029 4.09091 2.70966
RightFoot  -14.2797 -0.202664 -4.21713
RightToes  0.000482159 0.542163 -0.142577
Spine  32.2598 -1.50936 14.449
Spine1  9.72562 4.78287 -8.67373
HEad  -39.5594 50.7454 -50.6467
LeftShoulder1  9.81206 -14.5543 -47.4248
LeftArm  -24.0435 22.5353 -17.2749
LeftForeArm  109.738 -78.0689 -118.717
LeftHand  -0.25398 0.0180481 5.50724
RightShoulder  4.64918 9.34906 30.2123
RightArm  -5.92045 -18.0258 30.8955
RightForeArm  40.1482 77.8038 94.4502
RightHand  0.577789 -14.5571 -8.31238
LeftUpLeg  -19.3438 -0.430879 -2.35268
LeftLeg  -4.80393 5.04568 -7.19853
LeftFoot  7.83631 2.39094 -14.3652
LeftToes  1.06246e-005 4.65854e-005 -8.18503e-006
98
root  -28.1306 39.5556 -9.30033 -2.8595 -36.6222 2.14274
RightUpLeg  -15.4472 -23.7249 -0.484665
RightLeg  30.2414 3.27141 1.82952
RightFoot  -12.1047 -0.110847 -4.23567
RightToes  0.000482159 0.542163 -0.142577
Spine  31.2534 -1.12438 14.8698
Spine1  9.02088 5.03368 -8.33114
HEad  -38.7176 53.3293 -51.2586
LeftShoulder1  9.78078 -14.3555 -47.8056
LeftArm  -23.9887 21.558 -17.6532
LeftForeArm  107.619 -78.3645 -116.095
LeftHand  -0.25398 0.0180481 5.50724
RightShoulder  4.58138 9.2807 29.8702
RightArm  -5.81783 -17.8996 31.06
RightForeArm  34.6159 77.8163 89.9916
RightHand  0.636775 -14.7831 -8.82771
LeftUpLeg  -18.3769 -0.633108 -3.41901
LeftLeg  -3.43434 13.3711 -7.83444
LeftFoot  6.54539 1.53741 -10.0341
LeftToes  1.06246e-005 4.65854e-005 -8.18503e-006
99
root  -27.6592 39.9498 -9.82701 -2.93538 -29.9441 2.79887
RightUpLeg  -14.1757 -27.9521 -1.58802
RightLeg  25.9035 1.36284 0.43631
RightFoot  -10.0662 -0.0331201 -3.2975
RightToes  0.000482159 0.542163 -0.142577
Spine  30.1123 -1.0315 15.0417
Spine1  8.10959 4.90602 -8.19397
HEad  -37.1121 54.7716 -50.1631
LeftShoulder1  9.75983 -14.2616 -47.9571
LeftArm  -23.4627 20.5483 -17.7148
LeftForeArm  104.177 -78.6821 -112.559
LeftHand  -0.25398 0.0180481 5.50724
RightShoulder  4.54554 9.13349 30.0068
RightArm  -5.97734 -18.8232 30.7572
RightForeArm  34.9704 77.7919 91.1705
RightHand  0.698771 -14.9613 -9.40276
LeftUpLeg  -17.5944 -0.242434 -4.40099
LeftLeg  0.132721 15.4486 -6.93843
LeftFoot  5.73768 1.0695 -7.34643
LeftToes  1.06246e-005 4.65854e-005 -8.18503e-006
100
root  -27.2217 40.3057 -10.2423 -2.72087 -22.954 3.51084
RightUpLeg  -13.032 -31.3822 -3.27535
RightLeg  22.5179 -1.31697 -0.555668
RightFoot  -7.88195 0.0105798 -2.07492
RightToes  0.000482159 0.542163 -0.142577
Spine  28.4142 -1.03855 14.9914
Spine1  7.57636 4.6468 -8.46161
HEad  -35.6087 54.9858 -48.116
LeftShoulder1  9.67995 -14.2278 -47.6511
LeftArm  -22.3855 19.8323 -17.511
LeftForeArm  102.22 -78.8132 -110.74
LeftHand  -0.25398 0.0180481 5.50724
RightShoulder  4.54756 9.02999 30.3244
RightArm  -6.05739 -20.4278 30.2653
RightForeArm  38.4429 77.7402 95.0077
RightHand  0.694094 -14.307 -9.97575
LeftUpLeg  -17.061 2.90603 -5.85749
LeftLeg  4.74211 11.1235 -5.04622
LeftFoot  3.84053 0.796108 -6.1486
LeftToes  1.06246e-005 4.65854e-005 -8.18503e-006
101
root  -26.7755 40.5842 -10.5462 -2.23299 -15.7957 4.11589
RightUpLeg  -11.2932 -30.9971 -6.28763
RightLeg  19.9251 -8.12891 -0.596115
RightFoot  -5.99028 0.0336097 -1.5712
RightToes  0.000482159 0.542163 -0.142577
Spine  26.2578 -1.00458 14.7305
Spine1  7.41827 4.24218 -8.441
HEad  -34.0755 54.2863 -45.7377
LeftShoulder1  9.59438 -14.2169 -47.2519
LeftArm  -21.0098 19.4154 -17.1862
LeftForeArm  102.405 -78.7957 -110.955
LeftHand  -0.25398 0.0180481 5.50724
RightShoulder  4.52374 8.98884 30.2525
RightArm  -5.98178 -22.4751 29.8983
RightForeArm  42.6548 77.5864 99.9403
RightHand  0.662678 -13.1865 -10.8353
LeftUpLeg  -16.6064 7.82011 -7.22867
LeftLeg  8.7598 4.81101 -2.8891
LeftFoot  1.89335 0.637214 -5.59757
LeftToes  1.06246e-005 4.65854e-005 -8.18503e-006
102
root  -26.2865 40.7605 -10.7566 -1.63197 -9.04191 4.22846
RightUpLeg  -8.66883 -24.8751 -9.89386
RightLeg  17.3955 -20.6641 0.0654258
RightFoot  -4.38334 0.0193799 -0.829284
RightToes  0.000482159 0.542163 -0.142577
Spine  24.1356 -0.840591 14.6731
Spine1  7.23502 4.01385 -8.23412
HEad  -31.6686 52.9538 -42.6748
LeftShoulder1  9.54426 -14.1798 -47.1004
LeftArm  -19.752 19.1992 -16.9861
LeftForeArm  103.719 -78.7255 -112.039
LeftHand  -0.25398 0.0180481 5.50724
RightShoulder  4.51818 9.05106 30.0251
RightArm  -5.89749 -24.8899 29.3774
RightForeArm  47.3683 77.2715 105.815
RightHand  0.659612 -12.4927 -11.7456
LeftUpLeg  -16.0099 11.4351 -6.73399
LeftLeg  11.5751 1.43595 -0.983079
LeftFoot  1.13711 0.566958 -5.25009
LeftToes  1.06246e-005 4.65854e-005 -8.18503e-006
103
root  -25.7368 40.8591 -10.8877 -1.00394 -3.38109 3.86748
RightUpLeg  -6.47106 -19.1863 -12.0642
RightLeg  14.8695 -31.7027 0.787782
RightFoot  -2.72813 -0.073122 0.719382
RightToes  0.000482159 0.542163 -0.142577
Spine  22.1823 -0.487896 14.8499
Spine1  6.93185 4.20204 -8.37154
HEad  -28.3206 51.2829 -38.6247
LeftShoulder1  9.4712 -14.0479 -47.0906
LeftArm  -19.1051 19.3457 -17.1261
LeftForeArm  105.398 -78.6358 -113.368
LeftHand  -0.25398 0.0180481 5.50724
RightShoulder  4.60454 9.22918 30.2017
RightArm  -5.78543 -27.0512 28.5387
RightForeArm  51.8577 76.8623 111.135
RightHand  0.678495 -12.3077 -12.34
LeftUpLeg  -15.1401 13.1406 -3.99729
LeftLeg  13.1473 1.68117 0.220233
LeftFoot  1.00238 0.461211 -4.31793
LeftToes  1.06246e-005 4.65854e-005 -8.18503e-006
104
root  -25.1048 40.9079 -10.9757 -0.384613 1.37054 3.38799
RightUpLeg  -4.93945 -17.5035 -13.278
RightLeg  12.853 -37.5946 1.44586
RightFoot  -1.11448 -0.173992 1.8722
RightToes  0.000482159 0.542163 -0.142577
Spine  20.3578 -0.152404 14.8476
Spine1  6.60374 4.45583 -8.84232
HEad  -25.1266 49.7136 -34.4677
LeftShoulder1  9.34564 -13.8374 -47.0288
LeftArm  -19.3125 20.1216 -17.4269
LeftForeArm  107.366 -78.4963 -115.099
LeftHand  -0.25398 0.0180481 5.50724
RightShoulder  4.71238 9.35651 30.6902
RightArm  -5.50363 -28.0408 27.907
RightForeArm  54.6883 76.549 114.344
RightHand  0.690194 -12.0865 -12.9148
LeftUpLeg  -14.0871 14.1609 -0.412384
LeftLeg  13.4499 3.43482 0.83972
LeftFoot  0.805826 0.298181 -2.85071
LeftToes  1.06246e-005 4.65854e-005 -8.18503e-006
105
root  -24.3675 40.9044 -11.0704 0.0685215 5.83191 3.03425
RightUpLeg  -3.66877 -17.7051 -14.5317
RightLeg  11.6463 -41.2538 1.71048
RightFoot  0.420364 -0.229408 2.25693
RightToes  0.000482159 0.542163 -0.142577
Spine  18.9443 -0.121678 14.4977
Spine1  6.20577 4.38617 -9.39658
HEad  -23.0383 48.4418 -31.3875
LeftShoulder1  9.2469 -13.6534 -47.0309
LeftArm  -20.0677 21.4235 -17.4362
LeftForeArm  109.115 -78.3152 -116.941
LeftHand  -0.25398 0.0180481 5.50724
RightShoulder  4.72735 9.2897 31.0017
RightArm  -5.05293 -27.6186 27.8829
RightForeArm  55.6726 76.3748 115.844
RightHand  0.709737 -11.7892 -13.7994
LeftUpLeg  -12.9983 14.8958 2.93419
LeftLeg  12.6896 5.29399 0.952333
LeftFoot  0.979899 0.202588 -1.9329
LeftToes  1.06246e-005 4.65854e-005 -8.18503e-006
106
root  -23.5293 40.8512 -11.167 0.364982 10.1524 2.81914
RightUpLeg  -2.28517 -18.2215 -16.0792
RightLeg  10.9313 -44.7109 1.63666
RightFoot  1.95653 -0.334353 2.9733
RightToes  0.000482159 0.542163 -0.142577
Spine  17.9733 -0.261294 13.8848
Spine1  5.83143 4.13072 -9.86777
HEad  -22.0007 47.1952 -29.5896
LeftShoulder1  9.23335 -13.5348 -47.2939
LeftArm  -20.8216 22.7629 -17.0829
LeftForeArm  109.467 -78.1925 -117.854
LeftHand  -0.25398 0.0180481 5.50724
RightShoulder  4.67422 9.13124 31.045
RightArm  -4.59331 -26.3841 28.045
RightForeArm  56.1345 76.2332 116.944
RightHand  0.770158 -11.9152 -14.5674
LeftUpLeg  -12.1925 16.0822 5.6603
LeftLeg  11.6094 7.03263 0.585546
LeftFoot  1.41971 0.17832 -1.67605
LeftToes  1.06246e-005 4.65854e-005 -8.18503e-006
